<?xml version="1.0" standalone="no"?>
<!DOCTYPE svg PUBLIC "-//W3C//DTD SVG 20010904//EN"
 "http://www.w3.org/TR/2001/REC-SVG-20010904/DTD/svg10.dtd">
<svg version="1.0" xmlns="http://www.w3.org/2000/svg"
 width="512.000000pt" height="512.000000pt" viewBox="0 0 512.000000 512.000000"
 preserveAspectRatio="xMidYMid meet">

<g transform="translate(0.000000,512.000000) scale(0.100000,-0.100000)"
fill="#000000" stroke="none">
<path d="M2400 4544 c-14 -2 -65 -9 -115 -15 -114 -14 -326 -68 -429 -109
-673 -267 -1138 -849 -1241 -1551 -8 -59 -15 -127 -15 -152 0 -49 0 -49 -70
-62 -19 -4 -73 -25 -120 -47 -153 -73 -276 -226 -315 -389 -22 -94 -22 -606 1
-693 43 -168 158 -311 309 -387 104 -51 154 -61 359 -66 205 -6 255 1 274 39
9 17 13 244 15 838 3 801 3 817 25 923 86 410 317 754 655 975 505 331 1149
331 1654 0 284 -185 495 -461 602 -785 76 -229 75 -210 78 -1118 2 -591 6
-816 15 -833 19 -38 69 -45 274 -39 133 3 207 10 249 22 200 56 372 236 420
437 21 91 21 599 0 683 -42 164 -158 313 -300 387 -63 33 -94 43 -176 62 -25
5 -26 9 -32 97 -35 492 -298 997 -692 1327 -270 226 -587 372 -950 437 -85 15
-420 29 -475 19z m393 -169 c313 -41 612 -163 860 -352 82 -62 235 -211 307
-298 219 -267 374 -646 397 -973 l6 -83 -69 3 -69 3 -7 75 c-19 187 -82 409
-165 573 -240 480 -671 803 -1206 904 -144 27 -447 25 -595 -5 -275 -55 -534
-176 -737 -342 -351 -288 -570 -692 -613 -1130 l-7 -75 -69 -3 -69 -3 6 83
c19 277 137 602 310 857 79 116 241 290 356 383 380 306 879 447 1364 383z
m-1903 -2505 l0 -640 -107 0 c-242 0 -375 55 -469 194 -67 98 -74 143 -74 451
0 245 2 280 20 338 38 124 143 231 270 277 45 16 82 19 208 20 l152 0 0 -640z
m3687 625 c125 -37 244 -156 283 -282 18 -58 20 -93 20 -338 0 -244 -2 -280
-20 -336 -37 -119 -118 -212 -232 -264 -73 -33 -146 -45 -285 -45 l-113 0 0
640 0 640 148 0 c103 0 164 -5 199 -15z"/>
<path d="M1250 2787 c-51 -26 -51 -12 -48 -1128 l3 -1037 24 -26 24 -26 1309
0 1309 0 24 25 25 24 0 1060 0 1060 -24 28 -24 28 -514 3 c-345 2 -534 -1
-578 -8 -72 -13 -145 -48 -185 -90 l-27 -28 -57 42 c-111 85 -77 81 -691 84
-430 2 -550 0 -570 -11z m1096 -162 c52 -15 91 -49 118 -102 14 -29 16 -112
16 -784 l0 -753 -27 26 c-72 67 -37 62 -588 68 l-500 5 -3 765 c-1 421 0 771
3 778 7 19 913 17 981 -3z m1414 -765 l0 -780 -487 0 c-469 0 -490 -1 -533
-21 -25 -11 -57 -32 -73 -47 l-27 -26 2 754 3 755 25 43 c24 43 67 77 118 92
15 5 240 9 500 9 l472 1 0 -780z m-1423 -955 c23 -16 88 -109 103 -149 l10
-26 -540 0 -540 0 0 95 0 95 473 0 c401 0 476 -2 494 -15z m1423 -80 l0 -95
-540 0 c-446 0 -540 2 -540 13 0 22 74 131 105 155 28 22 30 22 501 22 l474 0
0 -95z"/>
</g>
</svg>
