<?xml version="1.0" standalone="no"?>
<!DOCTYPE svg PUBLIC "-//W3C//DTD SVG 20010904//EN"
 "http://www.w3.org/TR/2001/REC-SVG-20010904/DTD/svg10.dtd">
<svg version="1.0" xmlns="http://www.w3.org/2000/svg"
 width="48.000000pt" height="48.000000pt" viewBox="0 0 48.000000 48.000000"
 preserveAspectRatio="xMidYMid meet">

<g transform="translate(0.000000,48.000000) scale(0.100000,-0.100000)"
fill="#000000" stroke="none">
<path d="M83 404 c-36 -18 -67 -75 -58 -105 9 -26 51 -53 71 -45 14 5 16 1 10
-25 -13 -67 41 -160 92 -158 13 0 12 2 -4 9 -23 9 -74 66 -74 82 0 5 8 12 18
15 17 4 18 9 8 44 -7 28 -7 45 0 57 14 21 60 28 80 11 11 -9 18 -9 26 -1 17
17 63 15 78 -3 8 -10 11 -30 7 -57 -4 -32 -2 -45 11 -54 23 -17 3 -58 -40 -84
-18 -11 -28 -20 -21 -20 6 0 25 12 42 26 35 29 54 86 45 133 -6 26 -4 30 10
25 20 -8 62 19 71 45 10 32 -22 87 -61 106 -19 9 -44 13 -55 10 -24 -8 -53
-50 -46 -68 4 -11 -8 -14 -53 -14 -50 0 -57 3 -53 18 5 19 -38 69 -59 69 -7 0
-27 -8 -45 -16z"/>
<path d="M200 200 c0 -11 5 -20 10 -20 6 0 10 9 10 20 0 11 -4 20 -10 20 -5 0
-10 -9 -10 -20z"/>
<path d="M260 200 c0 -11 5 -20 10 -20 6 0 10 9 10 20 0 11 -4 20 -10 20 -5 0
-10 -9 -10 -20z"/>
<path d="M233 153 c-7 -3 -13 -11 -13 -20 0 -17 41 -14 47 3 4 13 -16 23 -34
17z"/>
<path d="M228 63 c6 -2 18 -2 25 0 6 3 1 5 -13 5 -14 0 -19 -2 -12 -5z"/>
</g>
</svg>
