<?xml version="1.0" standalone="no"?>
<!DOCTYPE svg PUBLIC "-//W3C//DTD SVG 20010904//EN"
 "http://www.w3.org/TR/2001/REC-SVG-20010904/DTD/svg10.dtd">
<svg version="1.0" xmlns="http://www.w3.org/2000/svg"
 width="512.000000pt" height="512.000000pt" viewBox="0 0 512.000000 512.000000"
 preserveAspectRatio="xMidYMid meet">

<g transform="translate(0.000000,512.000000) scale(0.100000,-0.100000)"
fill="#000000" stroke="none">
<path d="M43 3185 c-45 -19 -53 -56 -24 -110 132 -250 670 -598 1150 -746 113
-35 259 -65 358 -75 l73 -7 0 -43 c0 -120 47 -208 135 -253 l49 -26 776 0 776
0 49 26 c88 45 135 133 135 253 l0 43 73 7 c397 38 933 277 1288 574 151 127
249 259 235 316 -15 60 154 56 -2558 56 -2104 -1 -2488 -3 -2515 -15z m4807
-181 c-225 -230 -727 -492 -1102 -573 -165 -36 -320 -41 -1188 -41 -868 0
-1023 5 -1188 41 -375 81 -877 343 -1102 573 l-44 46 2334 0 2334 0 -44 -46z
m-1480 -803 c0 -21 -5 -53 -11 -71 -22 -61 -3 -60 -797 -60 -511 0 -728 3
-752 11 -38 14 -60 57 -60 119 l0 40 810 0 810 0 0 -39z"/>
<path d="M4026 2855 c-75 -31 -96 -50 -96 -91 0 -23 7 -38 26 -53 35 -28 52
-27 129 8 50 23 66 35 71 57 10 39 -7 76 -42 90 -26 11 -38 10 -88 -11z"/>
<path d="M3636 2733 c-4 -5 -165 -10 -358 -13 l-350 -5 -19 -24 c-24 -30 -24
-76 0 -100 30 -30 93 -34 386 -28 345 7 432 22 455 76 13 33 0 75 -29 90 -23
13 -74 15 -85 4z"/>
</g>
</svg>
