<?xml version="1.0" standalone="no"?>
<!DOCTYPE svg PUBLIC "-//W3C//DTD SVG 20010904//EN"
 "http://www.w3.org/TR/2001/REC-SVG-20010904/DTD/svg10.dtd">
<svg version="1.0" xmlns="http://www.w3.org/2000/svg"
 width="512.000000pt" height="512.000000pt" viewBox="0 0 512.000000 512.000000"
 preserveAspectRatio="xMidYMid meet">

<g transform="translate(0.000000,512.000000) scale(0.100000,-0.100000)"
fill="#000000" stroke="none">
<path d="M895 3468 c-111 -11 -179 -30 -266 -73 -126 -64 -237 -178 -299 -306
l-23 -47 -103 -4 c-84 -3 -108 -7 -130 -24 -94 -70 -96 -190 -5 -251 27 -18
48 -23 100 -23 l67 0 12 -147 c24 -305 114 -510 301 -693 131 -127 287 -210
464 -246 122 -25 358 -15 487 21 436 120 745 467 860 968 l22 97 178 0 178 0
22 -97 c115 -501 424 -848 860 -968 129 -36 365 -46 487 -21 177 36 333 119
464 246 187 183 277 388 301 693 l12 147 67 0 c52 0 73 5 100 23 91 61 89 181
-5 251 -22 17 -46 21 -130 24 l-103 4 -23 47 c-62 128 -173 242 -299 306 -90
45 -155 62 -285 74 -136 14 -3179 13 -3311 -1z m1815 -358 l0 -70 -150 0 -150
0 0 70 0 70 150 0 150 0 0 -70z"/>
</g>
</svg>
