<?xml version="1.0" standalone="no"?>
<!DOCTYPE svg PUBLIC "-//W3C//DTD SVG 20010904//EN"
 "http://www.w3.org/TR/2001/REC-SVG-20010904/DTD/svg10.dtd">
<svg version="1.0" xmlns="http://www.w3.org/2000/svg"
 width="512.000000pt" height="512.000000pt" viewBox="0 0 512.000000 512.000000"
 preserveAspectRatio="xMidYMid meet">

<g transform="translate(0.000000,512.000000) scale(0.100000,-0.100000)"
fill="#000000" stroke="none">
<path d="M2613 5100 c-27 -16 -54 -62 -153 -260 -133 -267 -141 -294 -94 -345
l27 -29 -47 -94 c-45 -90 -48 -93 -75 -87 -32 7 -79 -8 -98 -33 -8 -9 -212
-412 -453 -895 -277 -553 -440 -888 -440 -906 0 -60 36 -84 382 -257 367 -183
387 -189 436 -135 15 16 74 124 132 240 57 116 108 211 112 211 4 0 29 -16 55
-36 202 -154 504 -166 714 -27 l37 24 53 -32 c213 -129 350 -315 404 -551 22
-97 22 -270 0 -367 -74 -318 -309 -558 -635 -644 -69 -18 -116 -20 -562 -24
l-488 -5 0 111 0 111 181 0 181 0 29 29 c54 54 36 146 -33 170 -21 8 -275 11
-790 11 -835 0 -801 3 -834 -61 -20 -40 -12 -88 22 -120 25 -23 32 -24 207
-29 l182 -5 0 -105 0 -105 -50 -7 c-176 -23 -320 -152 -361 -323 -20 -87 -20
-425 1 -465 33 -64 -107 -60 1905 -60 2016 0 1872 -5 1906 61 13 26 15 64 12
242 -4 236 -10 267 -76 366 -31 46 -128 131 -163 143 -8 3 15 59 59 148 158
323 211 628 167 963 -65 494 -327 918 -736 1192 -103 69 -256 149 -356 185
-35 13 -63 26 -63 29 0 16 -101 125 -150 162 -63 48 -177 104 -232 114 -21 4
-38 9 -38 11 0 3 22 48 49 102 26 53 51 109 55 124 7 32 -14 92 -39 105 -15 9
-11 20 31 105 l47 95 41 -4 c68 -8 84 13 217 279 127 255 135 284 98 332 -25
31 -685 366 -722 366 -12 0 -37 -9 -54 -20z m242 -1919 c99 -46 146 -139 123
-245 -15 -69 -85 -139 -154 -154 -174 -38 -315 130 -243 288 27 60 45 79 104
106 60 29 116 30 170 5z"/>
</g>
</svg>
